<?xml version="1.0" encoding="UTF-8"?><svg id="Layer_1" xmlns="http://www.w3.org/2000/svg" xmlns:xlink="http://www.w3.org/1999/xlink" viewBox="0 0 636.02 677.28"><defs><style>.cls-1,.cls-2{fill:ivory;}.cls-2{font-family:AktivGrotesk-Light, 'Aktiv Grotesk';font-size:43.34px;font-weight:300;}.cls-3{fill:none;}.cls-4{fill:#e9c57c;}.cls-5{clip-path:url(#clippath-1);}.cls-6{isolation:isolate;}.cls-7{clip-path:url(#clippath-2);}.cls-8{clip-path:url(#clippath);}</style><clipPath id="clippath"><polygon class="cls-3" points="274.76 288.45 177.58 235.59 177.96 30.8 275.14 83.67 274.76 288.45"/></clipPath><clipPath id="clippath-1"><polygon class="cls-3" points="275.14 83.67 177.96 30.8 367.69 4.14 464.87 57 275.14 83.67"/></clipPath><clipPath id="clippath-2"><polygon class="cls-3" points="464.87 57 464.49 261.79 274.76 288.45 275.14 83.67 464.87 57"/></clipPath></defs><g class="cls-6"><g class="cls-6"><g class="cls-8"><polyline class="cls-4" points="273.67 83.09 175.9 28.03 175.61 75.46 213.21 96.64 212.24 254.75 234.8 267.45 235.77 109.34 273.38 130.52 273.67 83.09"/></g></g><g class="cls-6"><g class="cls-5"><polyline class="cls-4" points="368.41 0 177.51 26.83 275.29 80.02 466.18 53.19 443.62 40.91 296.78 61.55 244.14 32.91 390.98 12.27 368.41 0"/></g></g><g class="cls-6"><g class="cls-7"><polyline class="cls-4" points="468.49 56.3 277.59 83.13 277.2 289.16 468.1 262.33 468.19 214.79 321.35 235.42 321.41 203.73 468.25 183.09 468.34 135.54 321.5 156.17 321.56 124.48 468.4 103.84 468.49 56.3"/></g></g></g><path class="cls-1" d="M64.71,341.27v299.27H17.78v-253.33H0l.76-45.94h63.95Z"/><path class="cls-1" d="M137.68,341.27h141.01v236.42h-46.93v-190.48h-34.08v144.55c0,13.83-4.28,24.94-12.84,33.34-8.57,8.4-19.76,12.6-33.59,12.6h-24.2v-45.94h21.24c1.64,0,2.47-.82,2.47-2.47v-142.08h-13.83l.76-45.94Z"/><path class="cls-1" d="M358.32,469.02v-81.81h-17.78l.76-45.94h63.95v127.75h-46.93Z"/><path class="cls-1" d="M476.97,577.69v-190.48h-9.88l.76-45.94h84.2l34.08,120.52h1.98c1.64,0,2.47-.82,2.47-2.47v-72.12h-15.81l.76-45.94h59.51v120.52c0,11.53-3.3,21.41-9.88,29.64-6.59,8.24-15.31,13.34-26.18,15.31l37.05,70.95h-46.93l-65.2-176.16v176.16h-46.93Z"/><text class="cls-2" transform="translate(99.29 641.26)"><tspan x="0" y="0">הבית של סוחרי העילית</tspan></text></svg>